<svg width="277" height="278" viewBox="0 0 277 278" fill="none" xmlns="http://www.w3.org/2000/svg">
<g clipPath="url(#clip0_144_524)">
<path d="M156.705 54.4843C157.606 53.5831 158.219 52.4351 158.468 51.1854C158.716 49.9356 158.589 48.6402 158.101 47.4629C157.614 46.2855 156.789 45.2791 155.729 44.5708C154.67 43.8624 153.425 43.484 152.15 43.4833H135.876C134.615 43.4828 133.383 43.1126 132.33 42.4187C131.278 41.7247 130.453 40.7374 129.956 39.5789L122.092 21.2182C121.596 20.0591 120.771 19.0711 119.718 18.3769C118.666 17.6826 117.433 17.3125 116.172 17.3125C114.911 17.3125 113.678 17.6826 112.625 18.3769C111.573 19.0711 110.747 20.0591 110.251 21.2182L102.385 39.5789C101.889 40.7377 101.064 41.7253 100.012 42.4194C98.9593 43.1134 97.7265 43.4834 96.4659 43.4833H80.1932C78.9188 43.4837 77.6732 43.8619 76.6137 44.5701C75.5542 45.2782 74.7284 46.2846 74.2408 47.462C73.7531 48.6394 73.6255 49.9349 73.874 51.1848C74.1224 52.4348 74.7359 53.583 75.6368 54.4843L87.8267 66.6783C88.6138 67.4651 89.1836 68.4423 89.4807 69.5149C89.7777 70.5874 89.7918 71.7186 89.5215 72.7982L83.7606 95.8484C83.4542 97.0734 83.5145 98.3613 83.934 99.5522C84.3535 100.743 85.1136 101.785 86.12 102.547C87.1264 103.31 88.3346 103.76 89.5946 103.841C90.8546 103.923 92.1108 103.633 93.2072 103.006L112.975 91.7053C113.948 91.1491 115.05 90.8565 116.171 90.8565C117.292 90.8565 118.393 91.1491 119.366 91.7053L139.136 103.006C140.233 103.633 141.489 103.923 142.749 103.841C144.009 103.76 145.217 103.309 146.223 102.547C147.229 101.784 147.989 100.743 148.408 99.5519C148.828 98.361 148.888 97.0732 148.581 95.8484L142.82 72.7982C142.55 71.7186 142.565 70.5875 142.862 69.5151C143.159 68.4426 143.728 67.4653 144.515 66.6783L156.705 54.4843Z" fill="white"/>
<path d="M12.617 104.982L8.00993 123.423C7.76455 124.403 7.81253 125.433 8.14789 126.386C8.48326 127.339 9.09123 128.172 9.89622 128.782C10.7012 129.392 11.6677 129.752 12.6756 129.817C13.6835 129.882 14.6883 129.65 15.5652 129.148L31.3793 120.107C32.1582 119.663 33.0396 119.429 33.9364 119.429C34.8333 119.429 35.7147 119.663 36.4936 120.107L52.3098 129.148C53.1866 129.65 54.1913 129.882 55.1991 129.817C56.2069 129.752 57.1733 129.392 57.9782 128.782C58.783 128.172 59.3908 127.338 59.7259 126.386C60.061 125.433 60.1086 124.403 59.8629 123.423L55.2558 104.982C55.04 104.119 55.0513 103.214 55.2886 102.356C55.526 101.498 55.9814 100.716 56.6104 100.087L66.3635 90.3304C67.0842 89.6095 67.575 88.6912 67.7739 87.6915C67.9728 86.6917 67.8708 85.6554 67.4809 84.7136C67.091 83.7718 66.4306 82.9667 65.5832 82.4002C64.7359 81.8336 63.7395 81.5309 62.7202 81.5305H49.702C48.6931 81.5303 47.7064 81.2342 46.8642 80.6787C46.022 80.1233 45.3613 79.3329 44.9639 78.4056L38.6724 63.7185C38.2756 62.7912 37.6153 62.0008 36.7734 61.4453C35.9315 60.8899 34.9451 60.5938 33.9364 60.5938C32.9278 60.5938 31.9414 60.8899 31.0995 61.4453C30.2576 62.0008 29.5972 62.7912 29.2004 63.7185L22.909 78.4059C22.5116 79.3332 21.8509 80.1236 21.0087 80.6791C20.1665 81.2345 19.1798 81.5307 18.1709 81.5308H5.15268C4.13334 81.5313 3.13702 81.8339 2.28965 82.4005C1.44227 82.9671 0.781887 83.7722 0.391961 84.714C0.00203429 85.6558 -0.0999278 86.6921 0.0989594 87.6918C0.297847 88.6915 0.788656 89.6099 1.50935 90.3308L11.2624 100.087C11.8914 100.717 12.3468 101.499 12.5841 102.356C12.8215 103.214 12.8329 104.119 12.617 104.982Z" fill="white"/>
<path d="M227.783 81.5305H214.764C213.756 81.5306 212.769 81.2345 211.927 80.679C211.085 80.1235 210.425 79.333 210.028 78.4056L203.735 63.7185C203.338 62.7912 202.678 62.0008 201.836 61.4453C200.994 60.8899 200.007 60.5938 198.999 60.5938C197.99 60.5938 197.004 60.8899 196.162 61.4453C195.32 62.0008 194.66 62.7912 194.263 63.7185L187.969 78.4063C187.573 79.3334 186.913 80.1237 186.071 80.6792C185.23 81.2347 184.244 81.531 183.235 81.5312H170.217C169.198 81.5312 168.201 81.8336 167.353 82.4C166.506 82.9664 165.845 83.7715 165.455 84.7134C165.065 85.6553 164.963 86.6917 165.161 87.6916C165.36 88.6916 165.851 89.6101 166.572 90.3311L176.325 100.087C176.954 100.717 177.41 101.499 177.647 102.357C177.885 103.215 177.896 104.119 177.679 104.983L173.07 123.424C172.825 124.404 172.874 125.434 173.209 126.387C173.545 127.339 174.153 128.172 174.958 128.782C175.763 129.392 176.73 129.752 177.738 129.817C178.746 129.883 179.751 129.65 180.628 129.149L196.442 120.108C197.221 119.664 198.102 119.43 198.999 119.43C199.896 119.43 200.777 119.664 201.556 120.108L217.37 129.149C218.247 129.65 219.252 129.882 220.26 129.817C221.268 129.752 222.234 129.392 223.039 128.782C223.844 128.172 224.452 127.339 224.788 126.387C225.124 125.434 225.172 124.404 224.927 123.424L220.318 104.983C220.102 104.119 220.113 103.215 220.351 102.357C220.588 101.499 221.043 100.717 221.673 100.087L231.426 90.3304C232.147 89.6095 232.638 88.6912 232.836 87.6914C233.035 86.6917 232.933 85.6554 232.543 84.7136C232.153 83.7718 231.493 82.9667 230.646 82.4001C229.798 81.8336 228.802 81.5309 227.783 81.5305Z" fill="white"/>
<path d="M41.2381 171.819H55.5929C57.8845 171.819 60.0822 172.729 61.7026 174.35C63.323 175.97 64.2333 178.168 64.2333 180.459V248.15C64.2333 250.442 63.3229 252.64 61.7023 254.26C60.0817 255.881 57.8837 256.791 55.5919 256.791H41.2381C38.9462 256.791 36.7482 255.881 35.1276 254.26C33.5071 252.64 32.5966 250.442 32.5966 248.15V180.461C32.5966 179.326 32.8201 178.202 33.2544 177.154C33.6887 176.105 34.3252 175.153 35.1276 174.35C35.93 173.548 36.8827 172.911 37.9311 172.477C38.9795 172.043 40.1032 171.819 41.2381 171.819Z" fill="white"/>
<path d="M150.018 181.261H126.991L142.399 135.123C142.812 133.837 143.017 132.493 143.006 131.142C143.028 128.518 142.242 125.951 140.755 123.79C139.268 121.629 137.152 119.977 134.694 119.06C132.235 118.143 129.555 118.005 127.015 118.664C124.476 119.323 122.201 120.748 120.499 122.744L74.9101 176.028C73.5621 177.588 72.8235 179.582 72.8306 181.643C72.8792 192.656 72.8877 229.462 72.8898 243.293C72.8902 244.895 73.3384 246.466 74.1838 247.828C75.0292 249.189 76.2381 250.288 77.6743 250.999L79.2953 251.81C85.8948 255.111 93.1724 256.83 100.551 256.83H140.582C144.8 256.804 148.89 255.379 152.211 252.779C155.532 250.179 157.896 246.55 158.932 242.461L168.368 204.72C169.06 201.934 169.108 199.027 168.509 196.22C167.91 193.412 166.68 190.778 164.911 188.517C163.143 186.256 160.883 184.428 158.302 183.171C155.722 181.913 152.889 181.26 150.018 181.261Z" fill="white"/>
</g>
<defs>
<clipPath id="clip0_144_524">
<rect width="277" height="278" fill="white"/>
</clipPath>
</defs>
</svg>
